<svg version="1.1" id="svg2" xmlns="http://www.w3.org/2000/svg" x="0" y="0" viewBox="0 0 442.8 105.5" style="enable-background:new 0 0 442.8 105.5" xml:space="preserve">
  <style>
    .st0{fill:#000}
  </style>
  <g id="g8" transform="matrix(1.33333 0 0 -1.33333 0 105.467)">
    <g id="g10" transform="scale(.1)">
      <path id="path12" class="st0" d="M0 396.8c0-60.3 48.9-109.1 109.1-109.1 60.3 0 109.1 48.9 109.1 109.1 0 97 78.9 175.9 175.9 175.9 60.3 0 109.1 48.9 109.1 109.1 0 60.3-48.9 109.1-109.1 109.1C176.8 791 0 614.1 0 396.8"/>
      <path id="path14" class="st0" d="M285.1 396.8c0-97-78.9-176-175.9-176C48.9 220.8 0 171.9 0 111.7 0 51.4 48.9 2.5 109.1 2.5c217.4 0 394.2 176.8 394.2 394.2 0 60.3-48.9 109.1-109.1 109.1-60.3.1-109.1-48.8-109.1-109"/>
      <path id="path16" d="M1171.3 394.9c0-98.6-79.9-178.5-178.5-178.5s-178.5 79.9-178.5 178.5 79.9 178.5 178.5 178.5c98.6.1 178.5-79.9 178.5-178.5" style="fill:#ed1c24"/>
      <path id="path18" class="st0" d="M816.9 394.9c0 97 78.9 175.9 175.9 175.9s175.9-78.9 175.9-175.9-78.9-176-175.9-176c-97 .1-175.9 79-175.9 176zm-218.3 0C598.6 177.5 775.4.7 992.8.7 1210.2.7 1387 177.6 1387 394.9c0 217.4-176.8 394.2-394.2 394.2-217.3.1-394.2-176.8-394.2-394.2"/>
      <path id="path20" class="st0" d="M2731.6 673.7c-153.7-153.7-153.7-403.8 0-557.5s403.8-153.7 557.5 0c42.6 42.6 42.6 111.7 0 154.3-42.6 42.6-111.7 42.6-154.3 0-68.6-68.6-180.3-68.6-248.9 0s-68.6 180.2 0 248.8c68.6 68.6 180.2 68.6 248.8 0 42.6-42.6 111.7-42.6 154.3 0 42.6 42.6 42.6 111.7 0 154.3-153.6 153.8-403.7 153.8-557.4.1"/>
      <path id="path22" class="st0" d="M2304.3 678V112.8c0-60.3 48.9-109.1 109.1-109.1 60.3 0 109.1 48.8 109.1 109.1V678c0 60.3-48.9 109.1-109.1 109.1-60.3 0-109.1-48.9-109.1-109.1"/>
      <path id="path24" class="st0" d="M1596.2 788.5c-60.3 0-109.1-48.9-109.1-109.1V109.1C1487.1 48.9 1536 0 1596.2 0s109.1 48.9 109.1 109.1v461.1h97.9c97 0 175.9-78.9 175.9-175.9V109.1C1979.1 48.8 2028 0 2088.2 0c60.3 0 109.1 48.9 109.1 109.1v285.2c0 217.4-176.8 394.2-394.2 394.2h-206.9"/>
    </g>
  </g>
</svg>
